HIERARCHY
ROOT hip
{
  OFFSET 0 0 0
  CHANNELS 6 Xposition Yposition Zposition Zrotation Yrotation Xrotation
  JOINT abdomen
  {
    OFFSET 0 20.6881 -0.73152
    CHANNELS 3 Zrotation Xrotation Yrotation
    JOINT chest
    {
      OFFSET 0 11.7043 -0.48768
      CHANNELS 3 Zrotation Xrotation Yrotation
      JOINT neck
      {
        OFFSET 0 22.1894 -2.19456
        CHANNELS 3 Zrotation Xrotation Yrotation
        JOINT head
        {
          OFFSET -0.24384 7.07133 1.2192
          CHANNELS 3 Zrotation Xrotation Yrotation
          JOINT leftEye
          {
            OFFSET 4.14528 8.04674 8.04672
            CHANNELS 3 Zrotation Xrotation Yrotation
            End Site
            {
              OFFSET 1 0 0
            }
          }
          JOINT rightEye
          {
            OFFSET -3.6576 8.04674 8.04672
            CHANNELS 3 Zrotation Xrotation Yrotation
            End Site
            {
              OFFSET 1 0 0
            }
          }
        }
      }
      JOINT rCollar
      {
        OFFSET -2.68224 19.2634 -4.8768
        CHANNELS 3 Zrotation Xrotation Yrotation
        JOINT rShldr
        {
          OFFSET -8.77824 -1.95073 1.46304
          CHANNELS 3 Zrotation Xrotation Yrotation
          JOINT rForeArm
          {
            OFFSET -28.1742 -1.7115 0.48768
            CHANNELS 3 Zrotation Xrotation Yrotation
            JOINT rHand
            {
              OFFSET -22.5879 0.773209 7.07136
              CHANNELS 3 Zrotation Xrotation Yrotation
              JOINT rThumb1
              {
                OFFSET -1.2192 -0.487915 3.41376
                CHANNELS 3 Zrotation Xrotation Yrotation
                JOINT rThumb2
                {
                  OFFSET -3.37035 -0.52449 3.41376
                  CHANNELS 3 Zrotation Xrotation Yrotation
                  End Site
                  {
                    OFFSET -1.78271 -1.18214 1.43049
                  }
                }
              }
              JOINT rIndex1
              {
                OFFSET -7.75947 0.938293 5.60832
                CHANNELS 3 Zrotation Xrotation Yrotation
                JOINT rIndex2
                {
                  OFFSET -2.54057 -0.884171 1.56538
                  CHANNELS 3 Zrotation Xrotation Yrotation
                  End Site
                  {
                    OFFSET -1.62519 -0.234802 1.16502
                  }
                }
              }
              JOINT rMid1
              {
                OFFSET -8.24714 1.18213 3.41376
                CHANNELS 3 Zrotation Xrotation Yrotation
                JOINT rMid2
                {
                  OFFSET -3.10165 -0.590103 1.0647
                  CHANNELS 3 Zrotation Xrotation Yrotation
                  End Site
                  {
                    OFFSET -2.48547 -0.328903 0.83742
                  }
                }
              }
              JOINT rRing1
              {
                OFFSET -8.82822 0.546677 1.51678
                CHANNELS 3 Zrotation Xrotation Yrotation
                JOINT rRing2
                {
                  OFFSET -2.60934 -0.819778 -0.0198488
                  CHANNELS 3 Zrotation Xrotation Yrotation
                  End Site
                  {
                    OFFSET -2.33842 -0.294052 0.168128
                  }
                }
              }
              JOINT rPinky1
              {
                OFFSET -8.27202 -0.0477905 -0.4584
                CHANNELS 3 Zrotation Xrotation Yrotation
                JOINT rPinky2
                {
                  OFFSET -1.82734 -0.647385 -0.700984
                  CHANNELS 3 Zrotation Xrotation Yrotation
                  End Site
                  {
                    OFFSET -1.69225 -0.51767 -0.607171
                  }
                }
              }
            }
          }
        }
      }
      JOINT lCollar
      {
        OFFSET 2.68224 19.2634 -4.8768
        CHANNELS 3 Zrotation Xrotation Yrotation
        JOINT lShldr
        {
          OFFSET 8.77824 -1.95073 1.46304
          CHANNELS 3 Zrotation Xrotation Yrotation
          JOINT lForeArm
          {
            OFFSET 28.1742 -1.7115 0.48768
            CHANNELS 3 Zrotation Xrotation Yrotation
            JOINT lHand
            {
              OFFSET 22.5879 0.773209 7.07136
              CHANNELS 3 Zrotation Xrotation Yrotation
              JOINT lThumb1
              {
                OFFSET 1.2192 -0.487915 3.41376
                CHANNELS 3 Zrotation Xrotation Yrotation
                JOINT lThumb2
                {
                  OFFSET 3.37035 -0.52449 3.41376
                  CHANNELS 3 Zrotation Xrotation Yrotation
                  End Site
                  {
                    OFFSET 1.78271 -1.18214 1.43049
                  }
                }
              }
              JOINT lIndex1
              {
                OFFSET 7.75947 0.938293 5.60832
                CHANNELS 3 Zrotation Xrotation Yrotation
                JOINT lIndex2
                {
                  OFFSET 2.54057 -0.884171 1.56538
                  CHANNELS 3 Zrotation Xrotation Yrotation
                  End Site
                  {
                    OFFSET 1.62519 -0.234802 1.16502
                  }
                }
              }
              JOINT lMid1
              {
                OFFSET 8.24714 1.18213 3.41376
                CHANNELS 3 Zrotation Xrotation Yrotation
                JOINT lMid2
                {
                  OFFSET 3.10165 -0.590103 1.0647
                  CHANNELS 3 Zrotation Xrotation Yrotation
                  End Site
                  {
                    OFFSET 2.48547 -0.328903 0.83742
                  }
                }
              }
              JOINT lRing1
              {
                OFFSET 8.82822 0.546677 1.51678
                CHANNELS 3 Zrotation Xrotation Yrotation
                JOINT lRing2
                {
                  OFFSET 2.60934 -0.819778 -0.0198488
                  CHANNELS 3 Zrotation Xrotation Yrotation
                  End Site
                  {
                    OFFSET 2.33842 -0.294052 0.168128
                  }
                }
              }
              JOINT lPinky1
              {
                OFFSET 8.27202 -0.0477905 -0.4584
                CHANNELS 3 Zrotation Xrotation Yrotation
                JOINT lPinky2
                {
                  OFFSET 1.82734 -0.647385 -0.700984
                  CHANNELS 3 Zrotation Xrotation Yrotation
                  End Site
                  {
                    OFFSET 1.69225 -0.51767 -0.607171
                  }
                }
              }
            }
          }
        }
      }
    }
  }
  JOINT rButtock
  {
    OFFSET -8.77824 4.35084 1.2192
    CHANNELS 3 Zrotation Xrotation Yrotation
    JOINT rThigh
    {
      OFFSET 0 -1.70687 -2.19456
      CHANNELS 3 Zrotation Xrotation Yrotation
      JOINT rShin
      {
        OFFSET 0 -36.8199 0.73152
        CHANNELS 3 Zrotation Xrotation Yrotation
        JOINT rFoot
        {
          OFFSET 0.73152 -45.1104 -5.12064
          CHANNELS 3 Zrotation Xrotation Yrotation
          End Site
          {
            OFFSET -1.1221 -3.69964 12.103
          }
        }
      }
    }
  }
  JOINT lButtock
  {
    OFFSET 8.77824 4.35084 1.2192
    CHANNELS 3 Zrotation Xrotation Yrotation
    JOINT lThigh
    {
      OFFSET 0 -1.70687 -2.19456
      CHANNELS 3 Zrotation Xrotation Yrotation
      JOINT lShin
      {
        OFFSET 0 -36.8199 0.73152
        CHANNELS 3 Zrotation Xrotation Yrotation
        JOINT lFoot
        {
          OFFSET -0.73152 -45.1104 -5.12064
          CHANNELS 3 Zrotation Xrotation Yrotation
          End Site
          {
            OFFSET 1.1221 -3.69964 12.103
          }
        }
      }
    }
  }
}
MOTION
Frames:	4
Frame Time:	0.03333
0.2722499529345331 70.48352242292128 0.7822952363397344 -4.562490940093994 -1.8058661222457886 9.13310432434082 -3.4987452030181885 12.522180557250977 4.182895660400391 3.189213514328003 -9.145898818969727 1.5240163803100586 -6.1856231689453125 13.770624160766602 -2.936518669128418 10.863110542297363 -19.34730339050293 -4.4838714599609375 -0.005800367332994938 -0.17114455997943878 -0.10439799726009369 0.036916181445121765 -0.05565951019525528 -0.15100401639938354 -0.008857447654008865 -0.0022350146900862455 -0.12315157800912857 52.292762756347656 31.055967330932617 19.70294761657715 -32.245849609375 -19.44109344482422 67.61431884765625 -1.8093968629837036 -8.044071197509766 -1.2519793510437012 0.03490587696433067 0.05656701326370239 0.10942106693983078 -0.011498293839395046 0.02214002050459385 0.28490254282951355 0.060027021914720535 -0.09106114506721497 0.2180899828672409 8.371819496154785 5.330283164978027 0.5721916556358337 -0.005528871435672045 0.05362651124596596 -0.09363814443349838 3.1668596267700195 0.9532859921455383 0.15084394812583923 0.01584867388010025 0.07525548338890076 -0.07217065244913101 11.36491870880127 0.7139060497283936 0.25635090470314026 -0.04699307680130005 0.08907514810562134 -0.2125525027513504 2.5490641593933105 -0.7114850878715515 -0.06426659226417542 0.03720340505242348 0.010993110947310925 0.26919659972190857 -58.949283599853516 30.929086685180664 -25.752235412597656 30.73032569885254 -20.496234893798828 -66.51720428466797 2.0049798488616943 -8.419514656066895 1.3669638633728027 -0.03076602704823017 0.06114520505070686 -0.04348384961485863 0.07497356832027435 -0.1286020427942276 -0.04803888499736786 -0.1190873309969902 0.03296291083097458 -0.25491708517074585 -8.65910816192627 5.253730297088623 -0.18538428843021393 -0.016002915799617767 0.003312445478513837 0.27009665966033936 -3.2032511234283447 0.9037635326385498 -0.012646795250475407 -0.09237578511238098 -0.04001881182193756 0.1865224987268448 -11.389782905578613 0.7907008528709412 -0.03876946493983269 0.11164232343435287 -0.007915092632174492 0.06319572776556015 -2.419250249862671 -0.8588706851005554 0.3289029002189636 0.1191362664103508 -0.06477838009595871 0.1636391282081604 -26.628665924072266 -35.67649841308594 -17.666475296020508 -1.4941569566726685 60.721290588378906 2.260608673095703 -4.944306373596191 -9.573077201843262 -8.806310653686523 -0.03128455951809883 -0.03158541023731232 0.13133364915847778 30.409320831298828 -32.70192337036133 17.552141189575195 1.1048961877822876 59.144874572753906 -2.3419904708862305 6.376498699188232 -9.177193641662598 11.185681343078613
0.14988060392970198 65.73662291203246 -0.3046690723040284 -3.37225341796875 -0.2142004817724228 8.36525821685791 -1.5131217241287231 15.278852462768555 3.41587495803833 2.345482110977173 -10.138181686401367 0.8834927082061768 -4.184474468231201 14.591407775878906 -4.056338787078857 8.241483688354492 -22.893810272216797 -4.821675777435303 0.0595257505774498 0.2139526903629303 0.02074684575200081 -0.0664515420794487 0.05453355982899666 -0.01357966661453247 0.08763299137353897 -0.2074785977602005 -0.05929461121559143 45.09846115112305 38.83726501464844 19.590389251708984 -25.169160842895508 -27.010976791381836 67.48724365234375 -1.1464836597442627 -9.155238151550293 -1.9606578350067139 -0.1801575869321823 0.05146990343928337 -0.04594111442565918 0.035144153982400894 -0.006409576628357172 -0.4193914234638214 -0.013682854361832142 0.09679653495550156 -0.17987944185733795 7.462784290313721 5.444839000701904 -0.10183802247047424 0.04990774393081665 -0.08387567847967148 -0.1486823409795761 2.7598142623901367 0.9799086451530457 0.009998020716011524 -0.06875567883253098 -0.08944632112979889 -0.1260334998369217 9.729490280151367 0.6650622487068176 -0.09312921017408371 0.15573690831661224 -0.11575647443532944 0.07497560232877731 2.0113046169281006 -0.8555141687393188 -0.5052369832992554 -0.03389459848403931 -0.05392882972955704 -0.38268718123435974 -54.092193603515625 40.00456237792969 -27.40414810180664 23.98885726928711 -24.464984893798828 -65.58894348144531 1.831333041191101 -13.640607833862305 2.313472270965576 0.020337507128715515 -0.12145008146762848 0.04436527565121651 -0.047392912209033966 0.13037195801734924 0.09777099639177322 0.14173001050949097 -0.1499059945344925 0.043836988508701324 -7.302772521972656 5.766140460968018 -0.8273093104362488 -0.059745389968156815 0.027629470452666283 -0.29973527789115906 -2.819110155105591 1.0092428922653198 -0.3284998834133148 0.10238393396139145 0.11750233918428421 -0.30746811628341675 -9.768878936767578 0.5461369156837463 -0.21425548195838928 -0.03868045657873154 -0.11650335788726807 0.045687224715948105 -2.1569180488586426 -0.5844168663024902 -0.10148456692695618 -0.11721809953451157 0.19403162598609924 -0.545306921005249 -24.00343894958496 -41.729740142822266 -18.37512969970703 -1.3341196775436401 65.8165054321289 2.3645694255828857 -4.648136138916016 -11.972638130187988 -9.817933082580566 -0.061136942356824875 0.022393442690372467 0.020808320492506027 30.98026466369629 -42.831790924072266 21.504003524780273 1.5902888774871826 67.64502716064453 -2.547330856323242 4.039109230041504 -11.850996971130371 12.072205543518066
1.0617913262925636 61.0761252941443 0.6180042139217748 0.6904194951057434 -11.477812767028809 2.6280856132507324 -8.631366729736328 19.015785217285156 1.3871424198150635 5.3938889503479 -10.961674690246582 0.3046308159828186 -6.187690258026123 16.364492416381836 -7.752395153045654 11.722702980041504 -23.97906494140625 -12.726263046264648 0.08650423586368561 -0.35440218448638916 -0.6421907544136047 -0.20830422639846802 -0.21924631297588348 -0.6328795552253723 0.12627825140953064 -0.07569780945777893 -0.6006489396095276 39.86412048339844 25.40213394165039 26.912872314453125 -25.30082130432129 -30.237102508544922 70.17977905273438 -2.9602603912353516 -14.256564140319824 -3.4416534900665283 -0.17135366797447205 0.33621835708618164 -0.35979941487312317 -0.33332154154777527 0.20824983716011047 0.26281049847602844 0.09458476305007935 0.06608356535434723 -0.6712917685508728 8.069286346435547 5.147162914276123 0.03499091416597366 0.2133624255657196 -0.4899027943611145 0.01107509434223175 2.8796775341033936 1.1195735931396484 -0.6011201739311218 0.3453924357891083 0.2542630732059479 -0.23083847761154175 10.072196960449219 0.863400936126709 -0.7355449199676514 -0.16278387606143951 0.16671815514564514 -0.39069321751594543 2.5493271350860596 -0.9048547744750977 -0.39913827180862427 0.3330804407596588 -0.20079131424427032 0.5469410419464111 -40.720577239990234 53.56764221191406 -36.10767364501953 27.64995765686035 -35.138248443603516 -75.23544311523438 2.750784158706665 -35.016719818115234 4.147033214569092 0.28271347284317017 -0.4584277272224426 0.08898088335990906 0.2355443239212036 0.01778576709330082 -0.3844135105609894 0.20927749574184418 0.10816564410924911 -0.5336430668830872 -7.437922954559326 5.064164161682129 -0.37683120369911194 0.4286346435546875 0.07946114987134933 -0.2630242109298706 -2.815662145614624 1.005204677581787 -0.48391613364219666 -0.49884065985679626 0.3250468075275421 0.44623446464538574 -10.520419120788574 0.2501083016395569 -0.4012860953807831 0.04129428416490555 -0.020782271400094032 -0.09258023649454117 -2.250157117843628 -0.6885644793510437 0.0021200028713792562 -0.25212618708610535 -0.12898963689804077 -0.5608043074607849 -57.49123001098633 -58.199485778808594 -49.133846282958984 -3.56498646736145 80.34922790527344 4.127762317657471 0.7233036756515503 -3.2671868801116943 2.2418150901794434 0.4550498127937317 0.2650803327560425 -0.20148637890815735 18.598785400390625 -24.607513427734375 13.977080345153809 0.4881506860256195 60.8013916015625 -3.702633857727051 10.720527648925781 -16.255395889282227 23.768714904785156
1.3671168971697065 68.15959153895946 2.6045899203425478 179.56309509277344 -36.502933502197266 172.06997680664062 -9.83433723449707 23.90068244934082 -1.5941684246063232 7.459278583526611 -11.138923645019531 -0.43446460366249084 -8.233440399169922 16.84848403930664 -9.247957229614258 13.935744285583496 -23.600481033325195 -14.786324501037598 0.13514019548892975 -0.5254335999488831 -0.5319063663482666 0.18354539573192596 -0.36734819412231445 0.2668114900588989 0.07239481806755066 -0.2828763425350189 -0.07972130924463272 46.183292388916016 12.22800064086914 28.935213088989258 -27.134166717529297 -36.665924072265625 77.6676254272461 -4.220020294189453 -36.32572937011719 -7.377861022949219 0.3498142659664154 0.1489677131175995 -0.6167550086975098 -0.5688694715499878 0.5196403861045837 0.9391433000564575 -0.3086989223957062 0.4289337396621704 -1.030959963798523 7.733979225158691 5.9652419090271 0.18790777027606964 0.4408823251724243 -0.24960608780384064 0.42358753085136414 3.227180004119873 0.09391192346811295 0.23243074119091034 -0.16436953842639923 -0.21657152473926544 -0.7298486232757568 10.953757286071777 1.1628772020339966 -0.7012057900428772 -0.7036276459693909 -0.0938437357544899 -1.1299773454666138 2.894166946411133 -1.3384872674942017 0.47966575622558594 0.4679049849510193 -0.40537387132644653 0.3142469823360443 -10.324148178100586 41.81406021118164 -68.07583618164062 28.716049194335938 -38.79741668701172 -81.6728744506836 3.7690625190734863 -42.93061828613281 6.763053894042969 0.3032321035861969 -0.9263493418693542 0.09046497195959091 0.09309099614620209 -0.5340871214866638 -0.638153076171875 0.4097137153148651 -0.5118972063064575 -0.7047964334487915 -7.204765796661377 5.531482696533203 -0.3268604278564453 0.8135843276977539 -0.023896733298897743 -0.2763895094394684 -3.4599218368530273 0.5953987240791321 -0.5529565811157227 -0.2614732086658478 0.942889392375946 0.6138030290603638 -10.897014617919922 -0.08820048719644547 -0.1747402548789978 0.16890747845172882 -0.4398173391819 0.1031639352440834 -2.607654094696045 -1.1302093267440796 0.779142439365387 -0.24703574180603027 -0.4770192503929138 -0.890720009803772 -82.98216247558594 -58.6874885559082 -72.19727325439453 -14.493066787719727 85.88367462158203 15.067009925842285 3.928084373474121 5.307499885559082 9.267621994018555 0.19632488489151 1.4550576210021973 -0.1959579437971115 15.82052230834961 -10.91433334350586 13.827144622802734 0.5635653138160706 55.41250228881836 -4.333236217498779 14.504653930664062 -17.49739646911621 30.540836334228516
